HIERARCHY
ROOT Hips
{
	OFFSET 0.00 0.00 0.00
	CHANNELS 6 Xposition Yposition Zposition Xrotation Yrotation Zrotation
	JOINT LeftUpLeg
	{
		OFFSET 3.29906 0.00000 0.00000
		CHANNELS 3 Xrotation Yrotation Zrotation
		JOINT LeftLeg
		{
			OFFSET 0.00000 -16.90256 0.00000
			CHANNELS 3 Xrotation Yrotation Zrotation
			JOINT LeftFoot
			{
				OFFSET 0.00000 -16.69398 0.00000
				CHANNELS 3 Xrotation Yrotation Zrotation
				JOINT LeftToeBase
				{
					OFFSET 0.00000 -1.46932 5.48360
					CHANNELS 3 Xrotation Yrotation Zrotation
					End Site
					{
						OFFSET 0.00000 0.00000 2.95275
					}
				}
			}
		}
	}
	JOINT RightUpLeg
	{
		OFFSET -3.29906 0.00000 0.00000
		CHANNELS 3 Xrotation Yrotation Zrotation
		JOINT RightLeg
		{
			OFFSET 0.00000 -16.90256 0.00000
			CHANNELS 3 Xrotation Yrotation Zrotation
			JOINT RightFoot
			{
				OFFSET 0.00000 -16.69398 0.00000
				CHANNELS 3 Xrotation Yrotation Zrotation
				JOINT RightToeBase
				{
					OFFSET 0.00000 -1.46932 5.48360
					CHANNELS 3 Xrotation Yrotation Zrotation
					End Site
					{
						OFFSET 0.00000 0.00000 2.95275
					}
				}
			}
		}
	}
	JOINT Spine
	{
		OFFSET 0.00000 0.03937 0.00000
		CHANNELS 3 Xrotation Yrotation Zrotation
		JOINT Spine1
		{
			OFFSET 0.00000 7.07715 0.00000
			CHANNELS 3 Xrotation Yrotation Zrotation
			JOINT Neck
			{
				OFFSET 0.00000 9.58345 0.00000
				CHANNELS 3 Xrotation Yrotation Zrotation
				JOINT Head
				{
					OFFSET 0.00000 6.23786 0.00000
					CHANNELS 3 Xrotation Yrotation Zrotation
					End Site
					{
						OFFSET 0.00000 4.52755 0.00000
					}
				}
			}
			JOINT LeftShoulder
			{
				OFFSET 0.00000 9.58345 0.00000
				CHANNELS 3 Xrotation Yrotation Zrotation
				JOINT LeftArm
				{
					OFFSET 7.67467 -0.00003 0.00000
					CHANNELS 3 Xrotation Yrotation Zrotation
					JOINT LeftForeArm
					{
						OFFSET 12.04206 -0.00004 0.00000
						CHANNELS 3 Xrotation Yrotation Zrotation
						JOINT LeftHand
						{
							OFFSET 9.71053 -0.00004 0.00000
							CHANNELS 3 Xrotation Yrotation Zrotation
							JOINT LeftHandThumb
							{
								OFFSET 0.00000 0.00000 0.00000
								CHANNELS 3 Xrotation Yrotation Zrotation
								End Site
								{
									OFFSET 0.00000 0.00000 3.93700
								}
							}
							JOINT L_Wrist_End
							{
								OFFSET 3.93700 -0.00001 0.00000
								CHANNELS 3 Xrotation Yrotation Zrotation
							}
						}
					}
				}
			}
			JOINT RightShoulder
			{
				OFFSET 0.00000 9.58345 0.00000
				CHANNELS 3 Xrotation Yrotation Zrotation
				JOINT RightArm
				{
					OFFSET -7.67467 -0.00003 0.00000
					CHANNELS 3 Xrotation Yrotation Zrotation
					JOINT RightForeArm
					{
						OFFSET -12.04206 -0.00004 0.00000
						CHANNELS 3 Xrotation Yrotation Zrotation
						JOINT RightHand
						{
							OFFSET -9.71053 -0.00004 0.00000
							CHANNELS 3 Xrotation Yrotation Zrotation
							JOINT RightHandThumb
							{
								OFFSET 0.00000 0.00000 0.00000
								CHANNELS 3 Xrotation Yrotation Zrotation
								End Site
								{
									OFFSET 0.00000 0.00000 3.93700
								}
							}
							JOINT R_Wrist_End
							{
								OFFSET -5.39369 -0.00002 0.00000
								CHANNELS 3 Xrotation Yrotation Zrotation
							}
						}
					}
				}
			}
		}
	}
}
MOTION
Frames: 19
Frame Time: 0.008333
 3.2880 36.1371 -17.9151 -166.3700 55.9922 -155.1422 3.6656 43.3500 -4.7549 57.8710 0.0000 0.0000 30.7112 -25.8670 -14.0574 -8.6701 0.0000 -0.0000 -103.0745 2.9877 -9.2455 123.2964 0.0000 0.0000 -14.8730 11.9159 19.8481 -9.2818 -0.0000 -0.0000 1.8236 -6.5630 -4.6273 23.5475 10.9285 31.9510 -5.2210 7.3291 9.0915 -41.4747 -28.2396 -22.2729 13.1435 20.1041 26.2529 -26.8591 -16.3727 -30.2391 -0.0003 -56.3035 -0.0002 16.3878 -4.9859 15.6650 0.0000 -0.0000 0.0000 0.0000 -0.0000 0.0000 8.8771 -9.2901 -20.5204 -53.2298 6.4234 36.3681 -0.0000 12.8218 0.0000 28.1370 -0.9342 -62.6736 -0.0000 -0.0000 0.0000 -0.0000 -0.0000 0.0000
 4.1781 36.5147 -18.1070 -165.5141 56.7738 -154.5248 3.8033 42.7699 -4.4851 60.4412 -0.0000 0.0000 28.6570 -24.3963 -13.0894 -8.7437 0.0000 0.0000 -103.1327 -0.4069 -10.0088 119.8942 -0.0000 0.0000 -15.4762 10.4634 20.0663 -9.6253 0.0000 -0.0000 1.7035 -6.6662 -4.8058 23.3469 10.9175 32.2375 -4.9608 7.8498 9.2652 -41.5857 -27.9227 -23.4563 13.6591 20.3501 26.0006 -23.5868 -16.6292 -31.6393 -0.0003 -54.3501 -0.0002 14.7337 -5.5658 15.1919 0.0000 -0.0000 0.0000 0.0000 -0.0000 0.0000 8.7138 -10.0020 -20.4165 -52.2439 6.7334 36.5006 -0.0000 12.9140 0.0000 29.4435 -4.0205 -67.3558 0.0000 -0.0000 -0.0000 0.0000 -0.0000 -0.0000
 5.0638 36.8633 -18.2756 -164.6795 57.5500 -154.0702 3.2302 41.8537 -3.7430 63.5440 -0.0000 -0.0000 27.9009 -24.6631 -11.0155 -9.0342 -0.0000 -0.0000 -103.3011 -3.4977 -10.8979 116.6331 0.0000 0.0000 -15.5812 9.4628 20.0195 -9.0326 0.0000 0.0000 1.3202 -6.5555 -4.8955 23.7554 10.7798 32.3673 -5.2040 8.0974 8.9718 -40.7152 -28.0044 -23.3750 13.7185 20.7086 25.8120 -20.7390 -16.9251 -33.1976 -0.0003 -52.5000 -0.0001 14.5643 -5.8409 15.1420 0.0000 0.0000 0.0000 0.0000 0.0000 0.0000 8.7288 -11.0066 -20.0336 -51.6963 7.6912 36.6526 -0.0000 12.4890 0.0000 30.5266 -5.8184 -71.9528 0.0000 0.0000 -0.0000 0.0000 0.0000 -0.0000
 5.9157 37.2115 -18.4383 -164.2089 58.4663 -153.3580 2.3511 40.8400 -3.0693 66.9153 -0.0000 -0.0000 27.3618 -25.8958 -10.3333 -9.1882 0.0000 -0.0000 -103.1999 -6.8670 -11.7477 113.1292 0.0000 0.0000 -16.2719 7.6078 19.4135 -9.3958 -0.0000 0.0000 1.0462 -6.5070 -4.8738 23.9639 10.5296 32.2902 -4.9906 8.3404 9.2129 -40.5111 -27.4814 -24.0512 14.1801 21.1582 25.5550 -18.3888 -17.0812 -35.2520 -0.0003 -51.0630 -0.0001 14.0301 -5.5035 15.7609 -0.0000 0.0000 0.0000 -0.0000 0.0000 0.0000 9.0277 -11.7036 -19.5867 -52.0273 7.9356 36.9835 -0.0000 12.4181 0.0000 31.4924 -8.1056 -75.6134 -0.0000 -0.0000 0.0000 -0.0000 -0.0000 0.0000
 6.7611 37.5373 -18.6035 -163.6886 59.4738 -152.7568 1.2709 39.8542 -2.3246 70.7587 -0.0000 0.0000 26.6206 -27.0406 -10.1183 -9.5998 -0.0000 -0.0000 -103.1858 -9.7299 -12.6250 110.0065 -0.0000 0.0000 -16.6368 6.0214 18.9716 -7.8133 0.0000 -0.0000 0.7567 -6.3577 -4.8431 24.3883 10.1895 32.1097 -5.0905 8.6659 8.9545 -39.4730 -27.6050 -23.8454 14.4283 21.6084 25.3852 -16.2481 -17.1144 -37.3609 -0.0003 -49.9706 -0.0001 13.7926 -4.5819 15.2563 -0.0000 0.0000 0.0000 -0.0000 0.0000 0.0000 9.3352 -12.5738 -19.1374 -52.3602 8.4270 37.4447 -0.0000 12.3321 0.0000 32.3436 -9.3926 -78.4207 0.0000 0.0000 -0.0000 0.0000 0.0000 -0.0000
 7.5769 37.8652 -18.7769 -163.4035 60.6152 -151.7819 0.2849 38.9916 -1.9548 74.7795 -0.0000 0.0000 25.5747 -27.7523 -10.2421 -9.8217 0.0000 0.0000 -102.9437 -12.4179 -13.3907 106.7360 -0.0000 0.0000 -17.1584 4.2148 18.1370 -7.4377 -0.0000 -0.0000 0.5154 -6.0192 -4.5787 24.7849 9.4683 31.3554 -4.8679 9.3546 9.3734 -39.3084 -27.3721 -24.7311 14.8058 22.1513 25.3019 -14.3542 -17.2825 -39.5000 -0.0002 -48.7230 -0.0001 14.5560 -4.0546 14.6309 -0.0000 0.0000 -0.0000 -0.0000 0.0000 -0.0000 9.6271 -13.0963 -18.7231 -52.4765 8.2947 38.0095 -0.0000 12.9026 0.0000 33.2245 -10.7755 -80.4820 -0.0000 -0.0000 0.0000 -0.0000 -0.0000 0.0000
 8.3882 38.1741 -18.9601 -163.1123 61.8224 -150.8816 -0.8795 38.3512 -1.3930 79.1470 -0.0000 0.0000 24.9242 -27.6429 -9.4813 -10.1137 0.0000 -0.0000 -102.9298 -14.6193 -14.1636 103.9205 -0.0000 0.0000 -16.7186 2.6505 17.5840 -6.8590 0.0000 -0.0000 0.3665 -5.7592 -4.4463 25.0520 8.9420 30.7857 -4.8385 9.8462 9.0769 -38.1853 -27.5894 -24.5652 14.8147 22.6293 25.1679 -12.0066 -18.0467 -41.3121 -0.0002 -47.6129 -0.0001 14.5085 -3.8897 13.1754 -0.0000 -0.0000 0.0000 -0.0000 -0.0000 0.0000 9.7210 -13.6305 -18.7425 -51.7495 8.3585 38.5545 -0.0000 13.1974 0.0000 34.0614 -11.3896 -82.4000 -0.0000 -0.0000 0.0000 -0.0000 -0.0000 0.0000
 9.1660 38.4866 -19.1553 -163.3122 63.0739 -149.3299 -2.0217 37.8947 -1.2447 83.5786 -0.0000 0.0000 24.2525 -26.6040 -8.9256 -10.3290 0.0000 0.0000 -102.8952 -16.3172 -14.7227 101.0511 0.0000 -0.0000 -16.4847 1.1950 16.9062 -6.7976 0.0000 -0.0000 0.3019 -5.4052 -4.2087 24.9699 8.2263 29.8234 -4.5321 10.4143 9.5032 -37.8638 -27.2033 -25.6500 15.1234 23.2066 24.8575 -9.6000 -19.4224 -42.6570 -0.0002 -46.7293 -0.0001 14.4021 -3.2894 11.8718 0.0000 0.0000 0.0000 0.0000 0.0000 0.0000 10.0741 -13.9736 -18.6464 -50.3290 8.4606 38.8173 -0.0001 13.8782 0.0000 34.5714 -12.8941 -83.6322 -0.0000 0.0000 0.0000 -0.0000 0.0000 0.0000
 9.9416 38.7844 -19.3447 -163.5360 64.5011 -147.8963 -3.1954 37.7252 -0.8644 88.1427 -0.0000 0.0000 23.5645 -24.6902 -8.2561 -10.6042 0.0000 -0.0000 -102.6623 -17.6490 -15.0130 98.3589 -0.0000 0.0000 -16.4384 -0.2263 16.2328 -6.8177 0.0000 0.0000 0.2427 -4.9376 -3.8863 24.9629 7.6278 28.8547 -4.2478 10.8298 9.8211 -37.3478 -26.7500 -26.6446 15.4727 23.5939 24.5301 -7.0940 -21.0224 -43.7651 -0.0002 -45.9368 -0.0001 14.4679 -2.9633 10.7467 -0.0000 0.0000 -0.0000 -0.0000 0.0000 -0.0000 10.8325 -14.5196 -18.5633 -49.7590 8.1727 39.2627 -0.0001 14.6990 0.0000 35.1331 -13.2326 -85.1724 0.0000 0.0000 0.0000 0.0000 0.0000 0.0000
 10.7108 39.0630 -19.5074 -164.1157 66.0757 -146.5025 -4.7346 37.8525 0.1573 92.8348 -0.0000 0.0000 22.6706 -22.2312 -7.6179 -10.7985 -0.0000 0.0000 -102.1863 -18.8414 -14.9483 95.6510 -0.0000 0.0000 -16.6667 -1.4422 15.6033 -6.7317 0.0000 -0.0000 0.3323 -4.6707 -3.6769 24.7779 7.4955 28.3579 -3.7381 10.6871 9.7009 -36.7399 -26.1317 -27.1927 16.1570 23.9944 23.7893 -4.7028 -22.7477 -44.6261 -0.0002 -45.4223 -0.0001 14.5071 -2.5803 9.5998 -0.0000 0.0000 0.0000 -0.0000 0.0000 0.0000 11.2163 -15.0323 -18.8070 -48.9962 7.9402 39.8288 -0.0001 15.4118 0.0000 35.7319 -13.0682 -86.6839 -0.0000 -0.0000 0.0000 -0.0000 -0.0000 0.0000
 11.4718 39.3483 -19.7278 -164.2344 67.7934 -144.9653 -5.2988 38.1735 0.2942 97.3366 -0.0000 0.0000 21.5353 -19.2315 -7.1505 -10.9745 0.0000 0.0000 -101.6708 -18.8468 -14.8063 93.4046 -0.0000 0.0000 -16.8607 -2.3965 14.6017 -6.6811 0.0000 -0.0000 0.4417 -3.9751 -3.2285 24.9436 6.5803 26.8326 -3.5081 10.9568 10.2009 -36.1802 -25.8141 -28.3406 16.2329 24.1638 23.8205 -1.9866 -24.1708 -45.7770 -0.0002 -45.1939 -0.0001 15.0002 -2.0471 8.5353 -0.0000 -0.0000 -0.0000 -0.0000 -0.0000 -0.0000 11.8282 -15.5037 -18.5755 -48.6402 7.5697 40.5023 -0.0001 16.0869 0.0000 36.6999 -13.1425 -87.6649 0.0000 -0.0000 -0.0000 0.0000 -0.0000 -0.0000
 12.2320 39.6016 -19.8895 -165.1109 69.3950 -143.3875 -6.8319 38.4771 1.6376 101.9285 -0.0000 0.0000 20.4712 -16.7897 -6.5383 -11.0147 0.0000 -0.0000 -101.0855 -19.0602 -14.4358 90.9593 -0.0000 0.0000 -17.1007 -3.3258 13.4750 -6.4550 -0.0000 0.0000 0.4218 -3.6672 -3.1137 24.9046 6.5251 26.4359 -2.9777 10.7454 10.0501 -35.5446 -25.2644 -28.9369 16.7887 24.3600 23.4534 0.4724 -26.1919 -46.8395 -0.0002 -44.7941 -0.0001 14.8761 -1.9042 8.3746 -0.0000 0.0000 -0.0000 -0.0000 0.0000 -0.0000 12.0929 -16.1679 -18.8657 -48.2994 7.1500 41.3703 -0.0001 16.6663 0.0000 38.0132 -12.1217 -88.0339 0.0000 0.0000 -0.0000 0.0000 0.0000 -0.0000
 12.9862 39.8415 -20.0610 -165.9708 71.0438 -141.8101 -8.1777 38.7546 3.0633 106.3466 0.0000 0.0000 19.4935 -15.1195 -5.9651 -11.0491 0.0000 0.0000 -100.4634 -18.7610 -13.9612 88.6895 -0.0000 0.0000 -16.9820 -4.2676 12.1634 -6.4894 -0.0000 0.0000 0.3817 -3.3028 -3.0055 24.9987 6.4368 25.9910 -2.5563 10.3421 9.8303 -34.6127 -24.8513 -29.3613 17.0022 24.1646 23.3177 3.2352 -28.0152 -47.9503 -0.0002 -44.5487 -0.0001 14.9149 -1.7090 8.0450 0.0000 0.0000 0.0000 0.0000 0.0000 0.0000 12.4103 -16.9936 -19.0793 -48.2106 6.7832 42.3407 -0.0001 17.1847 0.0000 39.5034 -11.7366 -88.2352 -0.0000 0.0000 0.0000 -0.0000 0.0000 0.0000
 13.7453 40.0689 -20.2496 -166.2262 72.7016 -140.7573 -9.2230 38.7319 4.3340 110.6784 -0.0000 0.0000 18.7793 -14.1505 -4.5923 -11.0575 0.0000 0.0000 -99.8904 -17.8167 -13.6543 86.8278 0.0000 0.0000 -16.5274 -4.9120 11.1295 -6.4396 0.0000 -0.0000 0.3465 -2.9582 -3.0246 25.3434 6.3124 25.6446 -2.3779 10.2502 8.9775 -33.1537 -25.3038 -28.9871 17.1838 23.9451 23.1798 5.8447 -29.9086 -48.9865 -0.0002 -44.3342 -0.0001 14.9151 -1.7131 7.4213 0.0000 0.0000 0.0000 0.0000 0.0000 0.0000 12.6283 -18.1014 -19.3222 -47.9964 6.9276 43.3790 -0.0001 17.3788 0.0000 41.1449 -10.8892 -88.2392 -0.0000 -0.0000 0.0000 -0.0000 -0.0000 0.0000
 14.4900 40.2989 -20.4438 -166.5625 74.2709 -139.4651 -10.0791 38.5439 5.3036 114.7288 -0.0000 0.0000 18.2747 -14.2745 -3.4450 -11.1014 0.0000 -0.0000 -99.2360 -16.4886 -13.3440 84.7578 0.0000 -0.0000 -16.0818 -5.6155 10.6666 -7.4100 0.0000 0.0000 0.3505 -2.5784 -2.8877 25.6705 5.7465 24.8244 -2.0943 10.1933 8.9094 -32.1601 -25.1839 -29.4626 17.8610 24.1057 22.9152 7.7361 -31.9233 -50.0167 -0.0002 -43.9868 -0.0001 15.1746 -1.5581 6.8488 0.0000 0.0000 0.0000 0.0000 0.0000 0.0000 13.0891 -18.8941 -19.2082 -47.4815 7.2948 44.0957 -0.0001 18.0042 0.0000 41.7078 -9.5996 -88.4168 0.0000 0.0000 0.0000 0.0000 0.0000 0.0000
 15.2246 40.5138 -20.6239 -167.4109 75.7349 -137.9297 -11.2053 38.1323 6.5316 118.5969 -0.0000 0.0000 17.8103 -15.3359 -2.6077 -11.0184 0.0000 -0.0000 -98.6462 -15.2555 -13.0641 82.6341 0.0000 0.0000 -15.6461 -6.4416 9.8860 -8.0472 0.0000 0.0000 0.2831 -2.3269 -2.7680 25.9680 5.2668 24.2029 -1.8680 9.8428 8.9609 -30.9529 -24.6244 -29.9086 18.5304 24.3938 22.5850 9.2455 -33.9528 -51.2141 -0.0002 -43.5066 -0.0001 15.4662 -1.4284 6.1855 -0.0000 -0.0000 0.0000 -0.0000 -0.0000 0.0000 12.9817 -19.3428 -19.1141 -45.9350 8.3547 44.2995 -0.0001 18.6732 0.0000 41.7245 -8.5360 -88.3655 0.0000 -0.0000 0.0000 0.0000 -0.0000 0.0000
 15.9552 40.7192 -20.8154 -167.9091 77.2301 -136.7185 -12.0841 37.5128 7.6053 122.2303 0.0000 0.0000 17.6810 -16.9807 -1.4798 -11.0937 -0.0000 0.0000 -97.9812 -13.9055 -12.9022 80.5309 -0.0000 0.0000 -15.1546 -7.2981 9.0200 -8.6973 -0.0000 0.0000 0.2618 -1.9260 -2.4081 26.3034 4.6209 23.2653 -1.6627 9.7878 9.0903 -29.9203 -24.4290 -30.4587 19.4036 24.7375 22.2544 10.1657 -35.9648 -52.3636 -0.0002 -42.9822 -0.0001 15.8329 -0.9306 5.3119 0.0000 -0.0000 -0.0000 0.0000 -0.0000 -0.0000 13.5660 -19.9658 -18.9133 -45.1578 8.6102 44.7527 -0.0001 19.5790 0.0000 42.1462 -7.5583 -87.8007 -0.0000 -0.0000 0.0000 -0.0000 -0.0000 0.0000
 16.6807 40.9181 -21.0017 -168.4527 78.6179 -135.5824 -13.0016 36.7413 8.5680 125.6545 0.0000 0.0000 17.7329 -18.7031 -0.6539 -11.1653 -0.0000 0.0000 -97.3815 -12.5786 -12.9168 78.4646 0.0000 0.0000 -14.7448 -8.0415 7.3389 -8.6996 -0.0000 -0.0000 0.2175 -1.6674 -2.1571 26.5887 4.1395 22.6174 -1.4193 9.7447 9.0210 -28.9760 -24.2888 -30.8685 20.0769 24.9819 22.0241 10.7058 -37.8275 -53.8996 -0.0002 -42.3198 -0.0001 16.5660 -0.1502 3.9095 -0.0000 0.0000 -0.0000 -0.0000 0.0000 -0.0000 14.2687 -20.5919 -18.8007 -44.3091 8.8697 45.0366 -0.0001 20.5791 0.0000 42.5650 -6.8441 -86.7729 -0.0000 -0.0000 -0.0000 -0.0000 -0.0000 -0.0000
 17.3954 41.1303 -21.2071 -169.3222 80.0502 -133.9806 -13.6495 36.0752 9.0587 128.7400 0.0000 0.0000 18.1814 -20.3933 0.2324 -11.2928 0.0000 0.0000 -96.7280 -11.1239 -13.0631 76.2828 -0.0000 0.0000 -14.0459 -8.4901 6.1913 -8.8188 -0.0000 0.0000 0.2758 -1.3537 -1.8122 26.7789 3.4568 21.6807 -1.0990 9.9972 9.0928 -28.3204 -24.2861 -31.4597 20.6722 25.2599 21.8284 10.9829 -39.4037 -55.7173 -0.0002 -41.6125 -0.0001 16.9626 0.5096 2.9771 -0.0000 -0.0000 -0.0000 -0.0000 -0.0000 -0.0000 15.1538 -21.1772 -18.5552 -43.8228 9.0950 45.3310 -0.0001 21.4090 0.0000 42.8931 -5.9042 -85.7266 0.0000 -0.0000 0.0000 0.0000 -0.0000 0.0000
